<svg xmlns="http://www.w3.org/2000/svg" xmlns:xlink="http://www.w3.org/1999/xlink" width="2000" zoomAndPan="magnify" viewBox="0 0 1500 374.999991" height="500" preserveAspectRatio="xMidYMid meet" version="1.2"><defs/><g id="69da5313d3"><rect x="0" width="1500" y="0" height="374.999991" style="fill:#ffffff;fill-opacity:1;stroke:none;"/><rect x="0" width="1500" y="0" height="374.999991" style="fill:#ffffff;fill-opacity:1;stroke:none;"/><g style="fill:#000000;fill-opacity:1;"><g transform="translate(469.095194, 268.394301)"><path style="stroke:none" d="M 9.96875 0 L 33.148438 0 L 33.148438 -70.539062 C 36.640625 -70.785156 37.386719 -70.785156 41.375 -71.535156 L 54.835938 0 L 79.757812 0 L 63.558594 -79.511719 C 73.03125 -91.722656 75.273438 -99.199219 75.273438 -119.886719 C 75.273438 -135.34375 72.53125 -146.058594 66.796875 -154.035156 C 60.316406 -163.257812 51.59375 -166.25 32.652344 -166.25 L 9.96875 -166.25 Z M 33.148438 -93.964844 L 33.148438 -144.5625 L 36.390625 -144.5625 C 49.351562 -144.5625 52.589844 -140.328125 52.589844 -122.382812 C 52.589844 -107.425781 52.34375 -103.4375 50.597656 -100.199219 C 48.355469 -95.960938 43.867188 -93.964844 36.390625 -93.964844 Z M 33.148438 -93.964844 "/></g></g><g style="fill:#000000;fill-opacity:1;"><g transform="translate(555.833514, 268.394301)"><path style="stroke:none" d="M 9.96875 0 L 68.042969 0 L 68.042969 -21.683594 L 33.148438 -21.683594 L 33.148438 -76.269531 L 56.082031 -76.269531 L 56.082031 -97.953125 L 33.148438 -97.953125 L 33.148438 -144.5625 L 66.050781 -144.5625 L 66.050781 -166.25 L 9.96875 -166.25 Z M 9.96875 0 "/></g></g><g style="fill:#000000;fill-opacity:1;"><g transform="translate(629.112432, 268.394301)"><path style="stroke:none" d="M 23.429688 0 L 46.609375 0 L 46.609375 -144.5625 L 69.292969 -144.5625 L 69.292969 -166.25 L 1.746094 -166.25 L 1.746094 -144.5625 L 23.429688 -144.5625 Z M 23.429688 0 "/></g></g><g style="fill:#000000;fill-opacity:1;"><g transform="translate(700.148154, 268.394301)"><path style="stroke:none" d="M 9.96875 0 L 33.148438 0 L 33.148438 -166.25 L 9.96875 -166.25 Z M 9.96875 0 "/></g></g><g style="fill:#000000;fill-opacity:1;"><g transform="translate(743.268061, 268.394301)"><path style="stroke:none" d="M 9.96875 0 L 33.148438 0 L 33.148438 -87.238281 L 60.566406 0 L 83.746094 0 L 83.746094 -166.25 L 60.566406 -166.25 L 60.566406 -68.292969 L 29.910156 -166.25 L 9.96875 -166.25 Z M 9.96875 0 "/></g></g><g style="fill:#000000;fill-opacity:1;"><g transform="translate(836.985381, 268.394301)"><path style="stroke:none" d="M 9.96875 0 L 33.148438 0 L 33.148438 -166.25 L 9.96875 -166.25 Z M 9.96875 0 "/></g></g><g style="fill:#000000;fill-opacity:1;"><g transform="translate(880.105247, 268.394301)"><path style="stroke:none" d="M 9.96875 0 L 33.148438 0 L 33.148438 -76.269531 L 56.082031 -76.269531 L 56.082031 -97.953125 L 33.148438 -97.953125 L 33.148438 -144.5625 L 66.050781 -144.5625 L 66.050781 -166.25 L 9.96875 -166.25 Z M 9.96875 0 "/></g></g><g style="fill:#000000;fill-opacity:1;"><g transform="translate(949.396279, 268.394301)"><path style="stroke:none" d="M 29.160156 0 L 52.34375 0 L 52.34375 -69.042969 L 78.265625 -166.25 L 53.835938 -166.25 L 41.125 -104.933594 L 28.414062 -166.25 L 3.238281 -166.25 L 29.160156 -69.042969 Z M 29.160156 0 "/></g></g></g></svg>